<svg width="36" height="33" viewBox="0 0 36 33" fill="none" xmlns="http://www.w3.org/2000/svg">
<path fill-rule="evenodd" clip-rule="evenodd" d="M6.43953 11.4037C6.72082 11.1459 7.10228 11.0011 7.50003 11.0011C7.89778 11.0011 8.27924 11.1459 8.56053 11.4037L18 20.057L27.4395 11.4037C27.5779 11.2723 27.7434 11.1676 27.9264 11.0955C28.1094 11.0235 28.3063 10.9855 28.5054 10.9839C28.7046 10.9824 28.9021 11.0171 29.0865 11.0863C29.2708 11.1554 29.4383 11.2575 29.5791 11.3866C29.72 11.5157 29.8313 11.6693 29.9068 11.8383C29.9822 12.0073 30.0201 12.1883 30.0184 12.3709C30.0167 12.5535 29.9753 12.7339 29.8967 12.9017C29.8181 13.0694 29.7038 13.2212 29.5605 13.348L19.0605 22.9735C18.7792 23.2313 18.3978 23.3761 18 23.3761C17.6023 23.3761 17.2208 23.2313 16.9395 22.9735L6.43953 13.348C6.15832 13.0902 6.00035 12.7405 6.00035 12.3759C6.00035 12.0112 6.15832 11.6615 6.43953 11.4037Z" fill="black"/>
</svg>
