<svg width="24" height="24" viewBox="0 0 24 24" fill="none" xmlns="http://www.w3.org/2000/svg">
<path fill-rule="evenodd" clip-rule="evenodd" d="M12.3904 0.349609C12.7748 0.349609 13.1434 0.502305 13.4152 0.774103C13.687 1.0459 13.8397 1.41454 13.8397 1.79892V10.4948H22.5356C22.92 10.4948 23.2886 10.6475 23.5604 10.9193C23.8322 11.1911 23.9849 11.5597 23.9849 11.9441C23.9849 12.3285 23.8322 12.6971 23.5604 12.9689C23.2886 13.2407 22.92 13.3934 22.5356 13.3934H13.8397V22.0893C13.8397 22.4737 13.687 22.8423 13.4152 23.1141C13.1434 23.3859 12.7748 23.5386 12.3904 23.5386C12.006 23.5386 11.6374 23.3859 11.3656 23.1141C11.0938 22.8423 10.9411 22.4737 10.9411 22.0893V13.3934H2.24521C1.86083 13.3934 1.49219 13.2407 1.22039 12.9689C0.948594 12.6971 0.795898 12.3285 0.795898 11.9441C0.795898 11.5597 0.948594 11.1911 1.22039 10.9193C1.49219 10.6475 1.86083 10.4948 2.24521 10.4948H10.9411V1.79892C10.9411 1.41454 11.0938 1.0459 11.3656 0.774103C11.6374 0.502305 12.006 0.349609 12.3904 0.349609Z" fill="#B4B4B4"/>
</svg>
