<svg width="25" height="14" viewBox="0 0 25 14" fill="none" xmlns="http://www.w3.org/2000/svg">
<path fill-rule="evenodd" clip-rule="evenodd" d="M0.439424 12.5963C0.720716 12.8541 1.10218 12.9989 1.49992 12.9989C1.89767 12.9989 2.27913 12.8541 2.56042 12.5963L11.9999 3.94302L21.4394 12.5963C21.5778 12.7277 21.7433 12.8324 21.9263 12.9045C22.1093 12.9765 22.3062 13.0145 22.5053 13.0161C22.7045 13.0176 22.902 12.9829 23.0864 12.9137C23.2707 12.8446 23.4382 12.7425 23.579 12.6134C23.7199 12.4843 23.8312 12.3307 23.9067 12.1617C23.9821 11.9927 24.02 11.8117 24.0183 11.6291C24.0166 11.4465 23.9752 11.2661 23.8966 11.0983C23.818 10.9306 23.7037 10.7788 23.5604 10.652L13.0604 1.0265C12.7791 0.76871 12.3977 0.623895 11.9999 0.623895C11.6022 0.623895 11.2207 0.76871 10.9394 1.0265L0.439424 10.652C0.158217 10.9098 0.000244141 11.2595 0.000244141 11.6241C0.000244141 11.9888 0.158217 12.3385 0.439424 12.5963V12.5963Z" fill="black"/>
</svg>
