<svg width="46" height="46" viewBox="0 0 46 46" fill="none" xmlns="http://www.w3.org/2000/svg">
<path d="M36.8465 4.36097H8.65489H8.31567H7.97644V4.3753C6.06529 4.53753 4.54407 6.05803 4.38198 7.97199H4.36769V8.31121V8.65044V29.6212V29.9605V30.2997H4.38198C4.54407 32.2137 6.06529 33.7342 7.97644 33.8964V33.9107H8.31567H8.65489H17.1146L21.4635 40.4338L21.4676 40.44L36.8465 4.36097ZM36.8465 4.36097H37.1857H37.525V4.3753C39.4361 4.53753 40.9573 6.05803 41.1194 7.97199H41.1337V8.31121V8.65044V29.6212V29.9605C41.1337 29.9613 41.1337 29.9621 41.1337 29.9629V30.3021H41.1192C40.9561 32.2149 39.4353 33.7342 37.525 33.8964V33.9107H37.1857H36.8465H28.3868L24.0338 40.44C24.0338 40.44 24.0338 40.44 24.0338 40.44L23.8455 40.7224L23.8141 40.7015C23.714 40.7969 23.6012 40.8787 23.4784 40.9444C23.2546 41.0643 23.0046 41.127 22.7507 41.127C22.4968 41.127 22.2468 41.0643 22.023 40.9444C21.9002 40.8787 21.7874 40.7969 21.6873 40.7015L21.6559 40.7224L21.469 40.4421L36.8465 4.36097ZM17.9387 30.8249H8.65489V30.8242L8.31593 30.8249H8.31567L8.31498 30.8249C8.31358 30.8249 8.31217 30.8249 8.31076 30.8249C8.19883 30.8246 8.08802 30.8024 7.98452 30.7597C7.87973 30.7164 7.7845 30.6528 7.70431 30.5725C7.62412 30.4923 7.56054 30.397 7.51723 30.292C7.47439 30.1883 7.45223 30.0771 7.45197 29.9648V29.9609V29.9605L7.45265 29.6212H7.45197V8.65044V8.31121C7.45197 7.83153 7.8368 7.44676 8.31567 7.44676H8.65489H36.8465H37.1857C37.6646 7.44676 38.0494 7.83153 38.0494 8.31121V8.65044V29.6212V29.9605C38.0494 30.4402 37.6646 30.8249 37.1857 30.8249H36.8465H27.5627H17.9387ZM27.5601 30.8249H27.2232V30.8625C27.0885 30.8928 26.958 30.9411 26.8353 31.0067C26.7124 31.0723 26.5995 31.1539 26.4993 31.2492L26.4676 31.228L26.2795 31.51L26.2793 31.5104L26.2791 31.5107L26.091 31.792L26.0914 31.7923L22.7507 36.8031L19.41 31.7923L19.4104 31.792L19.2223 31.5107L19.2221 31.5104L19.2219 31.51L19.0338 31.228L19.0021 31.2492C18.9019 31.1539 18.789 31.0723 18.6661 31.0067L18.5064 31.3059L18.6661 31.0067C18.5434 30.9411 18.4129 30.8928 18.2782 30.8625V30.8249H17.9413H27.5601ZM16.3969 23.959V24.2982H16.7361H28.7653H29.1045V23.959V21.5516V21.2124H28.7653H16.7361H16.3969V21.5516V23.959ZM13.991 16.7369V17.0761H14.3303H31.1711H31.5104V16.7369V14.3296V13.9904H31.1711H14.3303H13.991V14.3296V16.7369Z" fill="black" stroke="black" stroke-width="0.678446"/>
</svg>
