<svg width="90" height="90" viewBox="0 0 90 90" fill="none" xmlns="http://www.w3.org/2000/svg">
<path fill-rule="evenodd" clip-rule="evenodd" d="M40.5 9.279C31.4222 10.4341 23.1248 15.0024 17.2943 22.0555C11.4639 29.1086 8.53776 38.1171 9.11079 47.2501C9.68383 56.3832 13.713 64.9553 20.3794 71.2243C27.0457 77.4933 35.849 80.9887 45 81C53.7687 80.9998 62.236 77.7997 68.8129 72C75.3897 66.2003 79.6239 58.1999 80.721 49.5H45C43.8065 49.5 42.6619 49.0259 41.818 48.182C40.9741 47.3381 40.5 46.1935 40.5 45V9.279ZM49.5 9.279V40.5H80.721C79.7194 32.5692 76.1079 25.197 70.4554 19.5446C64.803 13.8921 57.4308 10.2806 49.5 9.279ZM0 45C0 20.1465 20.1465 0 45 0C69.8535 0 90 20.1465 90 45C90 69.8535 69.8535 90 45 90C20.1465 90 0 69.8535 0 45Z" fill="black"/>
</svg>
