<svg width="100" height="67" viewBox="0 0 100 67" fill="none" xmlns="http://www.w3.org/2000/svg">
<path fill-rule="evenodd" clip-rule="evenodd" d="M66.6779 8.3465C63.3573 8.3465 60.1728 9.66557 57.8249 12.0135C55.4769 14.3615 54.1579 17.546 54.1579 20.8665C54.1579 24.187 55.4769 27.3715 57.8249 29.7195C60.1728 32.0675 63.3573 33.3865 66.6779 33.3865C69.9984 33.3865 73.1829 32.0675 75.5309 29.7195C77.8788 27.3715 79.1979 24.187 79.1979 20.8665C79.1979 17.546 77.8788 14.3615 75.5309 12.0135C73.1829 9.66557 69.9984 8.3465 66.6779 8.3465ZM45.8112 20.8665C45.8112 17.4651 46.6427 14.1152 48.2334 11.1086C49.8241 8.10198 52.1256 5.52981 54.9376 3.61605C57.7496 1.70228 60.9868 0.504953 64.3673 0.128319C67.7479 -0.248316 71.1692 0.207163 74.3335 1.4551C77.4977 2.70303 80.309 4.70558 82.5223 7.28836C84.7357 9.87115 86.2842 12.9559 87.0328 16.2739C87.7815 19.5919 87.7077 23.0427 86.8178 26.3257C85.928 29.6087 84.249 32.6243 81.9272 35.1101C89.0072 37.4133 95.128 41.9907 99.3384 48.1309C99.9257 49.0456 100.133 50.1533 99.9161 51.2184C99.6992 52.2836 99.0753 53.222 98.1771 53.8342C97.2789 54.4464 96.1773 54.684 95.1066 54.4965C94.036 54.309 93.0807 53.7111 92.444 52.8301C88.3709 46.8539 80.9423 41.7332 70.8512 41.7332C54.8506 41.7332 45.8112 54.562 45.8112 62.5999C45.8112 63.7067 45.3715 64.7682 44.5888 65.5509C43.8062 66.3335 42.7447 66.7732 41.6378 66.7732C40.531 66.7732 39.4695 66.3335 38.6868 65.5509C37.9042 64.7682 37.4645 63.7067 37.4645 62.5999C37.4645 59.7119 38.1239 56.632 39.3842 53.598C39.0565 53.3857 38.7601 53.1287 38.5037 52.8343C35.0774 48.9364 29.7605 45.9065 22.8578 45.9065C15.9551 45.9065 10.6383 48.9364 7.21199 52.8343C6.47009 53.6223 5.45104 54.0913 4.36991 54.1423C3.28877 54.1933 2.23012 53.8223 1.41736 53.1075C0.604599 52.3927 0.10131 51.3902 0.0137028 50.3114C-0.073904 49.2326 0.261024 48.162 0.947807 47.3255C3.41223 44.5207 6.40061 42.2241 9.7452 40.5647C7.07304 37.9568 5.23891 34.6116 4.47706 30.9563C3.71522 27.3011 4.06025 23.5017 5.46809 20.0434C6.87593 16.5852 9.28267 13.6251 12.3809 11.5413C15.4791 9.45746 19.1282 8.34446 22.862 8.34446C26.5958 8.34446 30.2449 9.45746 33.3431 11.5413C36.4413 13.6251 38.8481 16.5852 40.2559 20.0434C41.6637 23.5017 42.0088 27.3011 41.2469 30.9563C40.4851 34.6116 38.651 37.9568 35.9788 40.5647C38.8741 42.0016 41.5056 43.9178 43.7621 46.2321C46.5965 42.6654 50.1226 39.7085 54.1286 37.539C51.5434 35.5962 49.4459 33.0782 48.0022 30.1844C46.5586 27.2906 45.8084 24.1004 45.8112 20.8665ZM12.4245 27.1265C12.4245 24.3594 13.5237 21.7057 15.4803 19.749C17.437 17.7924 20.0907 16.6932 22.8578 16.6932C25.6249 16.6932 28.2787 17.7924 30.2353 19.749C32.1919 21.7057 33.2912 24.3594 33.2912 27.1265C33.2912 29.8936 32.1919 32.5474 30.2353 34.504C28.2787 36.4606 25.6249 37.5599 22.8578 37.5599C20.0907 37.5599 17.437 36.4606 15.4803 34.504C13.5237 32.5474 12.4245 29.8936 12.4245 27.1265Z" fill="black"/>
</svg>
