<svg width="30" height="39" viewBox="0 0 30 39" fill="none" xmlns="http://www.w3.org/2000/svg">
<mask id="path-1-outside-1_865_8" maskUnits="userSpaceOnUse" x="-0.42334" y="-0.0450439" width="31" height="39" fill="black">
<rect fill="white" x="-0.42334" y="-0.0450439" width="31" height="39"/>
<path d="M7.55248 37.5942C7.47487 37.5942 7.398 37.5789 7.32629 37.5492C7.25458 37.5195 7.18943 37.4759 7.13454 37.4211C7.07966 37.3662 7.03612 37.301 7.00642 37.2293C6.97672 37.1576 6.96142 37.0807 6.96142 37.0031C6.96142 36.9255 6.97672 36.8486 7.00642 36.7769C7.03612 36.7052 7.07966 36.6401 7.13454 36.5852C7.18943 36.5303 7.25458 36.4868 7.32629 36.4571C7.398 36.4274 7.47487 36.4121 7.55248 36.4121H14.2781V29.0394L13.8177 29.0021C12.8181 28.9303 11.8282 28.7594 10.8624 28.4919H10.8251H10.738L10.6571 28.4608C10.1575 28.3139 9.66724 28.1373 9.18878 27.932V27.932L8.72215 27.6893C0.770905 24.1617 0.584245 19.2901 0.584245 18.7488C0.366488 10.5736 4.90829 1.65178 5.10116 1.27848C5.14966 1.18137 5.22425 1.09967 5.31655 1.04253C5.40885 0.985395 5.51522 0.955075 5.62377 0.954965H24.1331C24.2418 0.954352 24.3485 0.984364 24.441 1.04158C24.5334 1.0988 24.6078 1.18091 24.6558 1.27848C24.8548 1.65178 29.3904 10.5487 29.1727 18.7302C29.1727 19.3088 28.9798 24.3297 20.6801 27.8511L20.2135 28.0502C19.9958 28.1373 19.7718 28.2182 19.5167 28.3053L19.3612 28.3613L18.9505 28.5168H18.8261H18.739C17.8199 28.772 16.878 28.9366 15.9268 29.0083L15.4664 29.0394V36.4121H22.192C22.2854 36.3813 22.3848 36.3732 22.482 36.3884C22.5792 36.4035 22.6714 36.4415 22.7511 36.4992C22.8308 36.5568 22.8957 36.6326 22.9404 36.7202C22.9851 36.8078 23.0084 36.9048 23.0084 37.0031C23.0084 37.1015 22.9851 37.1984 22.9404 37.286C22.8957 37.3737 22.8308 37.4494 22.7511 37.5071C22.6714 37.5648 22.5792 37.6027 22.482 37.6179C22.3848 37.633 22.2854 37.6249 22.192 37.5942H7.55248ZM2.19567 13.4978C1.87222 15.2058 1.72419 16.9423 1.75392 18.6804C1.75392 18.9479 1.82235 23.9315 10.8313 27.2351C12.1538 27.6417 13.529 27.8513 14.9127 27.8573C16.3232 27.8599 17.7248 27.633 19.0625 27.1854C28.1274 23.7946 27.9843 18.7737 27.9781 18.724C28.0095 16.9735 27.8615 15.2243 27.5364 13.504L27.4617 13.0934H23.5608L25.3775 16.4282C25.4449 16.5674 25.458 16.7268 25.4143 16.8751C25.3706 17.0235 25.2732 17.1503 25.141 17.2308L18.9941 20.578C18.909 20.6273 18.8124 20.6531 18.7141 20.6527C18.6076 20.6499 18.5037 20.6198 18.4122 20.5653C18.3207 20.5109 18.2447 20.4338 18.1915 20.3416L17.3827 18.8546L16.7916 24.0559C16.7718 24.2113 16.694 24.3535 16.5739 24.4541C16.4669 24.5371 16.3359 24.583 16.2006 24.5847H16.1321L9.18255 23.7946C9.02982 23.7701 8.89167 23.6897 8.79505 23.5689C8.69842 23.4481 8.65026 23.2957 8.65993 23.1413L9.45008 16.1855C9.47253 16.0455 9.54214 15.9174 9.64737 15.8223C9.7526 15.7273 9.88714 15.671 10.0287 15.6629H10.1034L16.0077 16.3348L14.8442 14.207C14.7707 14.0674 14.7529 13.9051 14.7945 13.7529C14.843 13.605 14.9451 13.4807 15.0807 13.4045L21.2276 10.051C21.3127 10.0017 21.4093 9.97593 21.5076 9.97634C21.5634 9.97032 21.6198 9.97032 21.6756 9.97634C21.8258 10.0235 21.9525 10.1257 22.0302 10.2625L22.9137 11.8926H27.2191L27.0635 11.2704C26.2898 8.20904 25.2274 5.22796 23.8905 2.36727L23.7536 2.08108H5.99708L5.86643 2.36727C4.5266 5.2274 3.46203 8.20856 2.68716 11.2704L2.53785 11.8926H12.4925C12.2287 12.2427 12.0286 12.6365 11.9014 13.056V13.056H2.28899L2.19567 13.4978ZM9.90426 22.6747L15.6842 23.328L16.3437 17.5481L10.5575 16.8948L9.90426 22.6747ZM16.1632 14.1448L18.9505 19.2528L24.0585 16.4717L21.2712 11.3575L16.1632 14.1448Z"/>
</mask>
<path d="M7.55248 37.5942C7.47487 37.5942 7.398 37.5789 7.32629 37.5492C7.25458 37.5195 7.18943 37.4759 7.13454 37.4211C7.07966 37.3662 7.03612 37.301 7.00642 37.2293C6.97672 37.1576 6.96142 37.0807 6.96142 37.0031C6.96142 36.9255 6.97672 36.8486 7.00642 36.7769C7.03612 36.7052 7.07966 36.6401 7.13454 36.5852C7.18943 36.5303 7.25458 36.4868 7.32629 36.4571C7.398 36.4274 7.47487 36.4121 7.55248 36.4121H14.2781V29.0394L13.8177 29.0021C12.8181 28.9303 11.8282 28.7594 10.8624 28.4919H10.8251H10.738L10.6571 28.4608C10.1575 28.3139 9.66724 28.1373 9.18878 27.932V27.932L8.72215 27.6893C0.770905 24.1617 0.584245 19.2901 0.584245 18.7488C0.366488 10.5736 4.90829 1.65178 5.10116 1.27848C5.14966 1.18137 5.22425 1.09967 5.31655 1.04253C5.40885 0.985395 5.51522 0.955075 5.62377 0.954965H24.1331C24.2418 0.954352 24.3485 0.984364 24.441 1.04158C24.5334 1.0988 24.6078 1.18091 24.6558 1.27848C24.8548 1.65178 29.3904 10.5487 29.1727 18.7302C29.1727 19.3088 28.9798 24.3297 20.6801 27.8511L20.2135 28.0502C19.9958 28.1373 19.7718 28.2182 19.5167 28.3053L19.3612 28.3613L18.9505 28.5168H18.8261H18.739C17.8199 28.772 16.878 28.9366 15.9268 29.0083L15.4664 29.0394V36.4121H22.192C22.2854 36.3813 22.3848 36.3732 22.482 36.3884C22.5792 36.4035 22.6714 36.4415 22.7511 36.4992C22.8308 36.5568 22.8957 36.6326 22.9404 36.7202C22.9851 36.8078 23.0084 36.9048 23.0084 37.0031C23.0084 37.1015 22.9851 37.1984 22.9404 37.286C22.8957 37.3737 22.8308 37.4494 22.7511 37.5071C22.6714 37.5648 22.5792 37.6027 22.482 37.6179C22.3848 37.633 22.2854 37.6249 22.192 37.5942H7.55248ZM2.19567 13.4978C1.87222 15.2058 1.72419 16.9423 1.75392 18.6804C1.75392 18.9479 1.82235 23.9315 10.8313 27.2351C12.1538 27.6417 13.529 27.8513 14.9127 27.8573C16.3232 27.8599 17.7248 27.633 19.0625 27.1854C28.1274 23.7946 27.9843 18.7737 27.9781 18.724C28.0095 16.9735 27.8615 15.2243 27.5364 13.504L27.4617 13.0934H23.5608L25.3775 16.4282C25.4449 16.5674 25.458 16.7268 25.4143 16.8751C25.3706 17.0235 25.2732 17.1503 25.141 17.2308L18.9941 20.578C18.909 20.6273 18.8124 20.6531 18.7141 20.6527C18.6076 20.6499 18.5037 20.6198 18.4122 20.5653C18.3207 20.5109 18.2447 20.4338 18.1915 20.3416L17.3827 18.8546L16.7916 24.0559C16.7718 24.2113 16.694 24.3535 16.5739 24.4541C16.4669 24.5371 16.3359 24.583 16.2006 24.5847H16.1321L9.18255 23.7946C9.02982 23.7701 8.89167 23.6897 8.79505 23.5689C8.69842 23.4481 8.65026 23.2957 8.65993 23.1413L9.45008 16.1855C9.47253 16.0455 9.54214 15.9174 9.64737 15.8223C9.7526 15.7273 9.88714 15.671 10.0287 15.6629H10.1034L16.0077 16.3348L14.8442 14.207C14.7707 14.0674 14.7529 13.9051 14.7945 13.7529C14.843 13.605 14.9451 13.4807 15.0807 13.4045L21.2276 10.051C21.3127 10.0017 21.4093 9.97593 21.5076 9.97634C21.5634 9.97032 21.6198 9.97032 21.6756 9.97634C21.8258 10.0235 21.9525 10.1257 22.0302 10.2625L22.9137 11.8926H27.2191L27.0635 11.2704C26.2898 8.20904 25.2274 5.22796 23.8905 2.36727L23.7536 2.08108H5.99708L5.86643 2.36727C4.5266 5.2274 3.46203 8.20856 2.68716 11.2704L2.53785 11.8926H12.4925C12.2287 12.2427 12.0286 12.6365 11.9014 13.056V13.056H2.28899L2.19567 13.4978ZM9.90426 22.6747L15.6842 23.328L16.3437 17.5481L10.5575 16.8948L9.90426 22.6747ZM16.1632 14.1448L18.9505 19.2528L24.0585 16.4717L21.2712 11.3575L16.1632 14.1448Z" fill="black"/>
<path d="M7.55248 37.5942C7.47487 37.5942 7.398 37.5789 7.32629 37.5492C7.25458 37.5195 7.18943 37.4759 7.13454 37.4211C7.07966 37.3662 7.03612 37.301 7.00642 37.2293C6.97672 37.1576 6.96142 37.0807 6.96142 37.0031C6.96142 36.9255 6.97672 36.8486 7.00642 36.7769C7.03612 36.7052 7.07966 36.6401 7.13454 36.5852C7.18943 36.5303 7.25458 36.4868 7.32629 36.4571C7.398 36.4274 7.47487 36.4121 7.55248 36.4121H14.2781V29.0394L13.8177 29.0021C12.8181 28.9303 11.8282 28.7594 10.8624 28.4919H10.8251H10.738L10.6571 28.4608C10.1575 28.3139 9.66724 28.1373 9.18878 27.932V27.932L8.72215 27.6893C0.770905 24.1617 0.584245 19.2901 0.584245 18.7488C0.366488 10.5736 4.90829 1.65178 5.10116 1.27848C5.14966 1.18137 5.22425 1.09967 5.31655 1.04253C5.40885 0.985395 5.51522 0.955075 5.62377 0.954965H24.1331C24.2418 0.954352 24.3485 0.984364 24.441 1.04158C24.5334 1.0988 24.6078 1.18091 24.6558 1.27848C24.8548 1.65178 29.3904 10.5487 29.1727 18.7302C29.1727 19.3088 28.9798 24.3297 20.6801 27.8511L20.2135 28.0502C19.9958 28.1373 19.7718 28.2182 19.5167 28.3053L19.3612 28.3613L18.9505 28.5168H18.8261H18.739C17.8199 28.772 16.878 28.9366 15.9268 29.0083L15.4664 29.0394V36.4121H22.192C22.2854 36.3813 22.3848 36.3732 22.482 36.3884C22.5792 36.4035 22.6714 36.4415 22.7511 36.4992C22.8308 36.5568 22.8957 36.6326 22.9404 36.7202C22.9851 36.8078 23.0084 36.9048 23.0084 37.0031C23.0084 37.1015 22.9851 37.1984 22.9404 37.286C22.8957 37.3737 22.8308 37.4494 22.7511 37.5071C22.6714 37.5648 22.5792 37.6027 22.482 37.6179C22.3848 37.633 22.2854 37.6249 22.192 37.5942H7.55248ZM2.19567 13.4978C1.87222 15.2058 1.72419 16.9423 1.75392 18.6804C1.75392 18.9479 1.82235 23.9315 10.8313 27.2351C12.1538 27.6417 13.529 27.8513 14.9127 27.8573C16.3232 27.8599 17.7248 27.633 19.0625 27.1854C28.1274 23.7946 27.9843 18.7737 27.9781 18.724C28.0095 16.9735 27.8615 15.2243 27.5364 13.504L27.4617 13.0934H23.5608L25.3775 16.4282C25.4449 16.5674 25.458 16.7268 25.4143 16.8751C25.3706 17.0235 25.2732 17.1503 25.141 17.2308L18.9941 20.578C18.909 20.6273 18.8124 20.6531 18.7141 20.6527C18.6076 20.6499 18.5037 20.6198 18.4122 20.5653C18.3207 20.5109 18.2447 20.4338 18.1915 20.3416L17.3827 18.8546L16.7916 24.0559C16.7718 24.2113 16.694 24.3535 16.5739 24.4541C16.4669 24.5371 16.3359 24.583 16.2006 24.5847H16.1321L9.18255 23.7946C9.02982 23.7701 8.89167 23.6897 8.79505 23.5689C8.69842 23.4481 8.65026 23.2957 8.65993 23.1413L9.45008 16.1855C9.47253 16.0455 9.54214 15.9174 9.64737 15.8223C9.7526 15.7273 9.88714 15.671 10.0287 15.6629H10.1034L16.0077 16.3348L14.8442 14.207C14.7707 14.0674 14.7529 13.9051 14.7945 13.7529C14.843 13.605 14.9451 13.4807 15.0807 13.4045L21.2276 10.051C21.3127 10.0017 21.4093 9.97593 21.5076 9.97634C21.5634 9.97032 21.6198 9.97032 21.6756 9.97634C21.8258 10.0235 21.9525 10.1257 22.0302 10.2625L22.9137 11.8926H27.2191L27.0635 11.2704C26.2898 8.20904 25.2274 5.22796 23.8905 2.36727L23.7536 2.08108H5.99708L5.86643 2.36727C4.5266 5.2274 3.46203 8.20856 2.68716 11.2704L2.53785 11.8926H12.4925C12.2287 12.2427 12.0286 12.6365 11.9014 13.056V13.056H2.28899L2.19567 13.4978ZM9.90426 22.6747L15.6842 23.328L16.3437 17.5481L10.5575 16.8948L9.90426 22.6747ZM16.1632 14.1448L18.9505 19.2528L24.0585 16.4717L21.2712 11.3575L16.1632 14.1448Z" stroke="black" stroke-width="1.14414" mask="url(#path-1-outside-1_865_8)"/>
</svg>
