<svg width="99" height="100" viewBox="0 0 99 100" fill="none" xmlns="http://www.w3.org/2000/svg">
<path d="M39.3888 27.2147V15.8397C39.3888 12.8228 40.4541 9.92955 42.3503 7.79632C44.2465 5.66309 46.8183 4.46466 49.4999 4.46466H84.8888C87.5705 4.46466 90.1423 5.66309 92.0385 7.79632C93.9347 9.92955 94.9999 12.8228 94.9999 15.8397V84.0897C94.9999 87.1065 93.9347 89.9998 92.0385 92.133C90.1423 94.2662 87.5705 95.4647 84.8888 95.4647H49.4999C46.8183 95.4647 44.2465 94.2662 42.3503 92.133C40.4541 89.9998 39.3888 87.1065 39.3888 84.0897V72.7147" stroke="black" stroke-width="7.58333" stroke-linecap="round" stroke-linejoin="round"/>
<path d="M64.6667 49.9647H4M4 49.9647L19.1667 32.9022M4 49.9647L19.1667 67.0272" stroke="black" stroke-width="7.58333" stroke-linecap="round" stroke-linejoin="round"/>
</svg>
