<svg width="80" height="63" viewBox="0 0 80 63" fill="none" xmlns="http://www.w3.org/2000/svg">
<path fill-rule="evenodd" clip-rule="evenodd" d="M4.44444 0C3.2657 0 2.13524 0.468253 1.30175 1.30175C0.468252 2.13524 0 3.2657 0 4.44444C0 5.62318 0.468252 6.75364 1.30175 7.58714C2.13524 8.42064 3.2657 8.88889 4.44444 8.88889H75.5556C76.7343 8.88889 77.8648 8.42064 78.6983 7.58714C79.5318 6.75364 80 5.62318 80 4.44444C80 3.2657 79.5318 2.13524 78.6983 1.30175C77.8648 0.468253 76.7343 0 75.5556 0H4.44444ZM0 31.1111C0 29.9324 0.468252 28.8019 1.30175 27.9684C2.13524 27.1349 3.2657 26.6667 4.44444 26.6667H75.5556C76.7343 26.6667 77.8648 27.1349 78.6983 27.9684C79.5318 28.8019 80 29.9324 80 31.1111C80 32.2898 79.5318 33.4203 78.6983 34.2538C77.8648 35.0873 76.7343 35.5556 75.5556 35.5556H4.44444C3.2657 35.5556 2.13524 35.0873 1.30175 34.2538C0.468252 33.4203 0 32.2898 0 31.1111ZM0 57.7778C0 56.599 0.468252 55.4686 1.30175 54.6351C2.13524 53.8016 3.2657 53.3333 4.44444 53.3333H75.5556C76.7343 53.3333 77.8648 53.8016 78.6983 54.6351C79.5318 55.4686 80 56.599 80 57.7778C80 58.9565 79.5318 60.087 78.6983 60.9205C77.8648 61.754 76.7343 62.2222 75.5556 62.2222H4.44444C3.2657 62.2222 2.13524 61.754 1.30175 60.9205C0.468252 60.087 0 58.9565 0 57.7778Z" fill="black"/>
</svg>
