<svg width="85" height="106" viewBox="0 0 85 106" fill="none" xmlns="http://www.w3.org/2000/svg">
<path fill-rule="evenodd" clip-rule="evenodd" d="M22.3707 22.1493C22.9205 21.5915 23.6691 21.275 24.4519 21.2696C25.2348 21.2641 25.9878 21.5701 26.5453 22.1202L42.281 37.6513L57.7985 21.9022C58.0689 21.6181 58.3931 21.3907 58.7522 21.2333C59.1113 21.0759 59.4981 20.9917 59.8901 20.9856C60.2821 20.9794 60.6714 21.0515 61.0353 21.1975C61.3991 21.3436 61.7303 21.5607 62.0094 21.8362C62.2886 22.1117 62.5101 22.4401 62.6611 22.8022C62.812 23.1643 62.8894 23.5529 62.8888 23.9452C62.8881 24.3376 62.8094 24.7259 62.6572 25.0875C62.5049 25.4491 62.2823 25.7767 62.0022 26.0512L46.4847 41.8003L62.2204 57.3314C62.7621 57.885 63.0649 58.6293 63.0635 59.4041C63.0622 60.1789 62.7569 60.9222 62.2133 61.4739C61.6698 62.0255 60.9315 62.3415 60.1574 62.3536C59.3834 62.3657 58.6355 62.0731 58.075 61.5387L42.3393 46.0076L26.8217 61.7567C26.2687 62.2989 25.525 62.6019 24.7509 62.6006C23.9767 62.5992 23.2341 62.2936 22.6829 61.7496C22.1317 61.2056 21.816 60.4666 21.8039 59.6919C21.7917 58.9172 22.0841 58.1687 22.618 57.6077L38.1355 41.8586L22.3998 26.3275C21.8425 25.7772 21.5263 25.0279 21.5209 24.2444C21.5154 23.4609 21.8211 22.7073 22.3707 22.1493Z" fill="black"/>
<mask id="path-2-outside-1_14_509" maskUnits="userSpaceOnUse" x="0" y="0.464661" width="85" height="105" fill="black">
<rect fill="white" y="0.464661" width="85" height="105"/>
<path d="M23.2259 99.2717C23.4089 99.347 23.6051 99.3858 23.8032 99.3858H61.165C61.4035 99.4637 61.6572 99.4843 61.9052 99.4459C62.1533 99.4075 62.3886 99.3112 62.592 99.1649C62.7953 99.0186 62.9609 98.8265 63.075 98.6043C63.1892 98.3822 63.2487 98.1363 63.2487 97.8868C63.2487 97.6374 63.1892 97.3914 63.075 97.1693C62.9609 96.9471 62.7953 96.755 62.592 96.6087C62.3886 96.4624 62.1533 96.3661 61.9052 96.3277C61.6572 96.2893 61.4035 96.3099 61.165 96.3878H44.0005V77.69L45.1755 77.6111C47.603 77.4293 50.0069 77.0118 52.3526 76.3646H52.5748H52.8924L53.9404 75.9701L54.3374 75.8281C54.9884 75.6072 55.56 75.4021 56.1157 75.1812L57.3066 74.6763C78.4884 65.7455 78.9806 53.012 78.9806 51.5446C79.5364 30.7955 67.961 8.23189 67.4529 7.28516C67.3306 7.0377 67.1406 6.82947 66.9047 6.68436C66.6688 6.53924 66.3965 6.46313 66.1191 6.46468H18.8809C18.6038 6.46496 18.3323 6.54186 18.0968 6.68677C17.8612 6.83167 17.6709 7.03886 17.5471 7.28516C17.0549 8.23189 5.46361 30.8587 6.01936 51.5919C6.01936 52.9647 6.49574 65.3195 26.7883 74.266L27.9792 74.8814C29.2003 75.4022 30.4516 75.8501 31.7265 76.2226L31.9329 76.3015H32.1552H32.2505C34.7153 76.9798 37.2418 77.4132 39.7927 77.5953L40.9677 77.69V96.3878H23.8032C23.6051 96.3878 23.4089 96.4266 23.2259 96.5019C23.0429 96.5773 22.8766 96.6877 22.7365 96.8269C22.5965 96.9661 22.4854 97.1313 22.4096 97.3132C22.3338 97.495 22.2947 97.69 22.2947 97.8868C22.2947 98.0837 22.3338 98.2786 22.4096 98.4605C22.4854 98.6423 22.5965 98.8076 22.7365 98.9468C22.8766 99.0859 23.0429 99.1964 23.2259 99.2717Z"/>
</mask>
<path d="M10.1319 38.2747L7.19748 37.6508L7.19088 37.6819L7.18494 37.7131L10.1319 38.2747ZM9.0045 51.4184H12.0045V51.3925L12.0041 51.3667L9.0045 51.4184ZM32.1711 73.1141L31.1439 75.9328L31.2186 75.96L31.2947 75.9833L32.1711 73.1141ZM42.5873 74.692L42.5744 77.692L42.5818 77.692L42.5873 74.692ZM53.1782 72.9879L54.1248 75.8347L54.1744 75.8182L54.2235 75.8L53.1782 72.9879ZM75.9319 51.5288L72.9324 51.4747L72.9285 51.6899L72.9554 51.9034L75.9319 51.5288ZM74.8046 38.2904L71.8536 38.8304L71.8555 38.8406L71.8574 38.8508L74.8046 38.2904ZM74.6141 37.2491L77.5651 36.7091L77.5467 36.6086L77.5215 36.5096L74.6141 37.2491ZM65.4999 10.0464L68.2147 8.76975L68.2089 8.75756L68.2031 8.74542L65.4999 10.0464ZM65.1505 9.32064L67.8538 8.01961L67.0361 6.32064H65.1505V9.32064ZM19.8336 9.32064V6.32064H17.9103L17.1075 8.06828L19.8336 9.32064ZM19.5001 10.0464L22.2137 11.3257L22.2201 11.3123L22.2262 11.2988L19.5001 10.0464ZM11.3863 32.6258L8.47906 31.8855L8.47447 31.9035L8.4701 31.9216L11.3863 32.6258ZM7.18494 37.7131C6.32096 42.2467 5.92554 46.8563 6.00495 51.47L12.0041 51.3667C11.9317 47.1645 12.2919 42.9659 13.0789 38.8363L7.18494 37.7131ZM6.0045 51.4184C6.0045 52.1885 6.14433 56.1515 9.48483 61.0654C12.8255 65.9794 19.1837 71.5744 31.1439 75.9328L33.1982 70.2955C22.1666 66.2754 16.9415 61.3617 14.4468 57.6921C13.1908 55.8446 12.585 54.2526 12.2901 53.1447C12.142 52.5884 12.071 52.149 12.0368 51.8549C12.0197 51.7079 12.0117 51.5968 12.008 51.5252C12.0044 51.4557 12.0045 51.4199 12.0045 51.4184H6.0045ZM31.2947 75.9833C34.9501 77.0999 38.7507 77.6756 42.5744 77.692L42.6002 71.692C39.3615 71.6781 36.1428 71.1905 33.0475 70.245L31.2947 75.9833ZM42.5818 77.692C46.5051 77.6992 50.4036 77.072 54.1248 75.8347L52.2317 70.1412C49.125 71.1741 45.8694 71.698 42.5928 71.692L42.5818 77.692ZM54.2235 75.8C78.4932 66.7787 79.1199 52.8348 78.9085 51.1543L72.9554 51.9034C72.7757 50.4753 74.1328 61.9984 52.133 70.1759L54.2235 75.8ZM78.9314 51.5829C79.0152 46.9373 78.6199 42.2954 77.7518 37.73L71.8574 38.8508C72.6486 43.0114 73.0088 47.2414 72.9324 51.4747L78.9314 51.5829ZM77.7556 37.7505L77.5651 36.7091L71.663 37.789L71.8536 38.8304L77.7556 37.7505ZM77.5215 36.5096C75.5331 28.6915 71.7499 16.2871 68.2147 8.76975L62.7851 11.3231C66.0736 18.3158 69.7457 30.2785 71.7066 37.9885L77.5215 36.5096ZM68.2031 8.74542L67.8538 8.01961L62.4473 10.6217L62.7967 11.3475L68.2031 8.74542ZM65.1505 6.32064H19.8336V12.3206H65.1505V6.32064ZM17.1075 8.06828L16.7741 8.79409L22.2262 11.2988L22.5597 10.573L17.1075 8.06828ZM16.7866 8.76723C13.2856 16.1937 10.5039 23.9347 8.47906 31.8855L14.2935 33.3662C16.2238 25.7865 18.8758 18.4064 22.2137 11.3257L16.7866 8.76723ZM8.4701 31.9216L8.08904 33.4994L13.9214 34.908L14.3024 33.3301L8.4701 31.9216ZM7.43565 36.5305L7.19748 37.6508L13.0663 38.8985L13.3045 37.7782L7.43565 36.5305ZM23.2259 99.2717L25.5097 93.7233L25.5096 93.7233L23.2259 99.2717ZM22.4096 98.4605L27.9477 96.152L27.9477 96.152L22.4096 98.4605ZM22.4096 97.3132L16.8714 95.0046L16.8714 95.0048L22.4096 97.3132ZM22.7365 96.8269L26.9658 101.083L26.9659 101.083L22.7365 96.8269ZM23.2259 96.5019L20.9423 90.9535L20.9421 90.9536L23.2259 96.5019ZM40.9677 96.3878V102.388H46.9677V96.3878H40.9677ZM40.9677 77.69H46.9677V72.1539L41.4496 71.7094L40.9677 77.69ZM39.7927 77.5953L40.2746 71.6147L40.2473 71.6125L40.22 71.6105L39.7927 77.5953ZM32.2505 76.3015L33.8425 70.5165L33.061 70.3015H32.2505V76.3015ZM31.9329 76.3015L29.7903 81.9059L30.8251 82.3015H31.9329V76.3015ZM31.7265 76.2226L33.8691 70.6182L33.6422 70.5314L33.4091 70.4633L31.7265 76.2226ZM27.9792 74.8814L25.2249 80.2118L25.4215 80.3134L25.6251 80.4002L27.9792 74.8814ZM26.7883 74.266L29.5427 68.9356L29.3782 68.8506L29.2088 68.7759L26.7883 74.266ZM6.01936 51.5919H12.0194V51.5115L12.0172 51.4312L6.01936 51.5919ZM17.5471 7.28516L22.8705 10.053L22.8896 10.0164L22.9081 9.97953L17.5471 7.28516ZM18.0968 6.68677L14.953 1.57631L14.953 1.57631L18.0968 6.68677ZM18.8809 6.46468V0.464681L18.8748 0.464687L18.8809 6.46468ZM66.1191 6.46468V12.4647H66.1359L66.1527 12.4646L66.1191 6.46468ZM67.4529 7.28516L62.074 9.94365L62.1186 10.0339L62.1662 10.1225L67.4529 7.28516ZM78.9806 51.5446L72.9828 51.384L72.9806 51.4643V51.5446H78.9806ZM57.3066 74.6763L54.9756 69.1476L54.9646 69.1522L57.3066 74.6763ZM56.1157 75.1812L58.3321 80.7568L58.3952 80.7317L58.4577 80.7052L56.1157 75.1812ZM54.3374 75.8281L52.4094 70.1463L52.3628 70.1621L52.3165 70.1787L54.3374 75.8281ZM53.9404 75.9701L51.9195 70.3207L51.873 70.3373L51.8267 70.3547L53.9404 75.9701ZM52.8924 76.3646V82.3646H53.9843L55.0061 81.9799L52.8924 76.3646ZM52.3526 76.3646V70.3646H51.5399L50.7566 70.5807L52.3526 76.3646ZM45.1755 77.6111L45.5774 83.5976L45.6004 83.5961L45.6235 83.5944L45.1755 77.6111ZM44.0005 77.69L43.5987 71.7034L38.0005 72.0792V77.69H44.0005ZM44.0005 96.3878H38.0005V102.388H44.0005V96.3878ZM61.165 96.3878V102.388H62.1201L63.028 102.091L61.165 96.3878ZM61.9052 96.3277L60.9873 102.257L60.9875 102.257L61.9052 96.3277ZM63.075 97.1693L57.7383 99.9114L57.7383 99.9114L63.075 97.1693ZM63.075 98.6043L68.4117 101.347L68.4118 101.346L63.075 98.6043ZM61.9052 99.4459L60.9875 93.5165L60.9873 93.5165L61.9052 99.4459ZM61.165 99.3858L63.028 93.6823L62.1201 93.3858H61.165V99.3858ZM23.8032 93.3858C24.3871 93.3858 24.967 93.4999 25.5097 93.7233L20.9421 104.82C21.8509 105.194 22.823 105.386 23.8032 105.386V93.3858ZM25.5096 93.7233C26.0521 93.9466 26.5472 94.2748 26.9658 94.6908L18.5073 103.203C19.2061 103.897 20.0337 104.446 20.9423 104.82L25.5096 93.7233ZM26.9658 94.6908C27.3846 95.107 27.7189 95.6032 27.9477 96.152L16.8714 100.769C17.2518 101.681 17.8083 102.508 18.5073 103.203L26.9658 94.6908ZM27.9477 96.152C28.1763 96.7005 28.2947 97.2901 28.2947 97.8868H16.2947C16.2947 98.8772 16.4912 99.8567 16.8714 100.769L27.9477 96.152ZM28.2947 97.8868C28.2947 98.4836 28.1763 99.0731 27.9477 99.6216L16.8714 95.0048C16.4912 95.917 16.2947 96.8964 16.2947 97.8868H28.2947ZM27.9477 99.6217C27.7189 100.17 27.3846 100.667 26.9658 101.083L18.5073 92.5709C17.8083 93.2655 17.2518 94.0921 16.8714 95.0046L27.9477 99.6217ZM26.9659 101.083C26.5471 101.499 26.052 101.827 25.5098 102.05L20.9421 90.9536C20.0338 91.3275 19.2061 91.8764 18.5072 92.571L26.9659 101.083ZM25.5095 102.05C24.9679 102.273 24.3882 102.388 23.8032 102.388V90.3878C22.822 90.3878 21.85 90.5799 20.9423 90.9535L25.5095 102.05ZM23.8032 102.388H40.9677V90.3878H23.8032V102.388ZM46.9677 96.3878V77.69H34.9677V96.3878H46.9677ZM41.4496 71.7094L40.2746 71.6147L39.3109 83.5759L40.4859 83.6706L41.4496 71.7094ZM40.22 71.6105C38.0627 71.4565 35.9264 71.09 33.8425 70.5165L30.6585 82.0864C33.5042 82.8696 36.4208 83.3698 39.3654 83.5801L40.22 71.6105ZM32.2505 70.3015H32.1552V82.3015H32.2505V70.3015ZM32.1552 70.3015H31.9329V82.3015H32.1552V70.3015ZM34.0755 70.6971L33.8691 70.6182L29.5839 81.827L29.7903 81.9059L34.0755 70.6971ZM33.4091 70.4633C32.3626 70.1576 31.3355 69.79 30.3333 69.3625L25.6251 80.4002C27.0651 81.0145 28.5406 81.5426 30.0439 81.9818L33.4091 70.4633ZM30.7335 69.5509L29.5427 68.9356L24.034 79.5965L25.2249 80.2118L30.7335 69.5509ZM29.2088 68.7759C20.0208 64.7251 15.8532 60.1577 13.9243 56.9773C11.9774 53.7673 12.0194 51.4863 12.0194 51.5919H0.0193577C0.0193577 53.0704 0.299515 57.6531 3.66396 63.2003C7.04636 68.7771 13.2632 74.8603 24.3679 79.7561L29.2088 68.7759ZM12.0172 51.4312C11.7673 42.1091 14.2706 32.0575 17.0615 23.9774C19.8252 15.976 22.7093 10.3631 22.8705 10.053L12.2236 4.51734C11.8926 5.15395 8.73505 11.3277 5.719 20.0597C2.73013 28.713 -0.28436 40.3415 0.0215116 51.7527L12.0172 51.4312ZM22.9081 9.97953C22.5296 10.7326 21.9505 11.3605 21.2406 11.7972L14.953 1.57631C13.772 2.30284 12.8122 3.34508 12.1861 4.5908L22.9081 9.97953ZM21.2405 11.7972C20.5307 12.2339 19.7158 12.4638 18.8869 12.4647L18.8748 0.464687C17.4918 0.466079 16.134 0.849816 14.953 1.57631L21.2405 11.7972ZM18.8809 12.4647H66.1191V0.464684H18.8809V12.4647ZM66.1527 12.4646C65.3112 12.4693 64.4823 12.2386 63.7609 11.7948L70.0484 1.5739C68.8553 0.839912 67.4819 0.456949 66.0855 0.464778L66.1527 12.4646ZM63.7609 11.7948C63.0394 11.351 62.4532 10.7108 62.074 9.94365L72.8318 4.62667C72.208 3.36456 71.2417 2.30796 70.0484 1.5739L63.7609 11.7948ZM62.1662 10.1225C62.1651 10.1205 62.2155 10.2158 62.3191 10.4203C62.4172 10.614 62.5533 10.8869 62.7218 11.2332C63.0588 11.9257 63.5222 12.9056 64.0673 14.1272C65.1591 16.5739 66.5684 19.9679 67.945 23.9496C70.7328 32.0129 73.2327 42.0531 72.9828 51.384L84.9785 51.7053C85.2843 40.2871 82.2743 28.6709 79.2863 20.0285C76.2765 11.3229 73.1171 5.15125 72.7396 4.44777L62.1662 10.1225ZM72.9806 51.5446C72.9806 51.5467 72.9811 51.6876 72.953 51.9473C72.9245 52.2103 72.866 52.6008 72.745 53.0947C72.5046 54.0761 72.0112 55.4935 70.9829 57.1573C68.9646 60.4229 64.601 65.0893 54.9756 69.1476L59.6376 80.2049C71.194 75.3325 77.6674 69.1667 81.1907 63.4661C84.6969 57.793 84.9806 53.0688 84.9806 51.5446H72.9806ZM54.9646 69.1522L53.7738 69.6571L58.4577 80.7052L59.6486 80.2003L54.9646 69.1522ZM53.8994 69.6055C53.4718 69.7755 53.0041 69.9445 52.4094 70.1463L56.2653 81.5099C56.9727 81.2699 57.6482 81.0286 58.3321 80.7568L53.8994 69.6055ZM52.3165 70.1787L51.9195 70.3207L55.9613 81.6195L56.3582 81.4775L52.3165 70.1787ZM51.8267 70.3547L50.7787 70.7492L55.0061 81.9799L56.0541 81.5855L51.8267 70.3547ZM52.8924 70.3646H52.5748V82.3646H52.8924V70.3646ZM52.5748 70.3646H52.3526V82.3646H52.5748V70.3646ZM50.7566 70.5807C48.7863 71.1244 46.767 71.4751 44.7275 71.6278L45.6235 83.5944C48.4391 83.3835 51.2274 82.8993 53.9485 82.1484L50.7566 70.5807ZM44.7736 71.6246L43.5987 71.7034L44.4024 83.6765L45.5774 83.5976L44.7736 71.6246ZM38.0005 77.69V96.3878H50.0005V77.69H38.0005ZM44.0005 102.388H61.165V90.3878H44.0005V102.388ZM63.028 102.091C62.3698 102.306 61.6708 102.363 60.9873 102.257L62.8231 90.3983C61.6436 90.2157 60.4372 90.3136 59.3021 90.6843L63.028 102.091ZM60.9875 102.257C60.304 102.151 59.6529 101.886 59.088 101.479L66.0959 91.7381C65.1243 91.0392 64.0026 90.5809 62.823 90.3983L60.9875 102.257ZM59.088 101.479C58.523 101.073 58.0594 100.536 57.7383 99.9114L68.4118 94.4272C67.8624 93.3579 67.0676 92.4372 66.0959 91.7381L59.088 101.479ZM57.7383 99.9114C57.4171 99.2863 57.2487 98.5924 57.2487 97.8868H69.2487C69.2487 96.6823 68.9612 95.4966 68.4118 94.4271L57.7383 99.9114ZM57.2487 97.8868C57.2487 97.1812 57.4171 96.4873 57.7383 95.8623L68.4118 101.346C68.9612 100.277 69.2487 99.0913 69.2487 97.8868H57.2487ZM57.7383 95.8621C58.0596 95.2369 58.5233 94.7006 59.088 94.2943L66.0959 104.035C67.0673 103.337 67.8621 102.416 68.4117 101.347L57.7383 95.8621ZM59.088 94.2943C59.6529 93.8879 60.304 93.6223 60.9875 93.5165L62.823 105.375C64.0026 105.193 65.1243 104.734 66.0959 104.035L59.088 94.2943ZM60.9873 93.5165C61.6708 93.4107 62.3698 93.4673 63.028 93.6823L59.3021 105.089C60.4372 105.46 61.6436 105.558 62.8231 105.375L60.9873 93.5165ZM61.165 93.3858H23.8032V105.386H61.165V93.3858Z" fill="black" mask="url(#path-2-outside-1_14_509)"/>
</svg>
