<svg width="90" height="90" viewBox="0 0 90 90" fill="none" xmlns="http://www.w3.org/2000/svg">
<path fill-rule="evenodd" clip-rule="evenodd" d="M25 30.0006C25 24.6962 27.1071 19.6092 30.8579 15.8584C34.6086 12.1077 39.6957 10.0006 45 10.0006C50.3043 10.0006 55.3914 12.1077 59.1421 15.8584C62.8929 19.6092 65 24.6962 65 30.0006C65 35.3049 62.8929 40.392 59.1421 44.1427C55.3914 47.8934 50.3043 50.0006 45 50.0006C39.6957 50.0006 34.6086 47.8934 30.8579 44.1427C27.1071 40.392 25 35.3049 25 30.0006ZM64.12 53.1156C68.8776 49.1799 72.3048 43.872 73.9342 37.9164C75.5635 31.9608 75.3155 25.6475 73.224 19.838C71.1325 14.0285 67.2994 9.00592 62.2477 5.45555C57.1961 1.90518 51.172 0 44.9975 0C38.823 0 32.7989 1.90518 27.7473 5.45555C22.6956 9.00592 18.8625 14.0285 16.771 19.838C14.6795 25.6475 14.4315 31.9608 16.0608 37.9164C17.6902 43.872 21.1174 49.1799 25.875 53.1156C9.93 58.7306 0 71.2356 0 85.0006C0 86.3267 0.526784 87.5984 1.46447 88.5361C2.40215 89.4738 3.67392 90.0006 5 90.0006C6.32608 90.0006 7.59785 89.4738 8.53553 88.5361C9.47322 87.5984 10 86.3267 10 85.0006C10 73.6506 21.775 60.0006 45 60.0006C68.225 60.0006 80 73.6506 80 85.0006C80 86.3267 80.5268 87.5984 81.4645 88.5361C82.4021 89.4738 83.6739 90.0006 85 90.0006C86.3261 90.0006 87.5979 89.4738 88.5355 88.5361C89.4732 87.5984 90 86.3267 90 85.0006C90 71.2356 80.08 58.7306 64.12 53.1156Z" fill="black"/>
</svg>
